<?xml version="1.0" encoding="utf-8"?>
<!-- Generator: Adobe Illustrator 25.0.0, SVG Export Plug-In . SVG Version: 6.00 Build 0)  -->
<svg version="1.1" xmlns="http://www.w3.org/2000/svg" xmlns:xlink="http://www.w3.org/1999/xlink" x="0px" y="0px"
	 viewBox="0 0 841.89 226.52" style="enable-background:new 0 0 841.89 226.52;" xml:space="preserve">
<style type="text/css">
	.st0{clip-path:url(#SVGID_2_);fill:url(#SVGID_3_);}
	.st1{clip-path:url(#SVGID_5_);fill:url(#SVGID_6_);}
	.st2{clip-path:url(#SVGID_8_);fill:url(#SVGID_9_);}
	.st3{clip-path:url(#SVGID_11_);fill:url(#SVGID_12_);}
	.st4{clip-path:url(#SVGID_14_);fill:url(#SVGID_15_);}
	.st5{clip-path:url(#SVGID_17_);fill:url(#SVGID_18_);}
	.st6{clip-path:url(#SVGID_20_);fill:#FF0000;}
	.st7{clip-path:url(#SVGID_20_);fill:url(#SVGID_21_);}
</style>
<g id="Camada_1">
</g>
<g id="Camada_2">
	<g>
		<g>
			<defs>
				<path id="SVGID_1_" d="M807.62,58.55c0-4.2-3.27-7.6-7.29-7.6c-0.12,0-0.24,0.01-0.36,0.02c-0.06-0.01-0.12-0.02-0.19-0.02
					h-63.25c-0.25,0-0.49,0.05-0.72,0.13C694.21,57.09,687.68,90,686.71,98c-0.1,0.26-0.16,0.55-0.16,0.85v73.35
					c0,1.28,1.04,2.33,2.33,2.33h17.19c1.28,0,2.33-1.04,2.33-2.33c0,0,0-50.64,0-69.35c0-13.11,19.33-30.06,34.7-30.06
					c12.05,0,42.7,0,42.7,0v29.56h-37.11c-1.28,0-2.33,1.04-2.33,2.33v17.19c0,1.28,1.04,2.33,2.33,2.33h37.11v48
					c0,1.28,1.04,2.33,2.33,2.33h17.19c1.28,0,2.33-1.04,2.33-2.33V58.57c0,0,0,0,0-0.01C807.62,58.56,807.62,58.55,807.62,58.55z"
					/>
			</defs>
			<clipPath id="SVGID_2_">
				<use xlink:href="#SVGID_1_"  style="overflow:visible;"/>
			</clipPath>
			<linearGradient id="SVGID_3_" gradientUnits="userSpaceOnUse" x1="52.4981" y1="111.7921" x2="807.6217" y2="111.7921">
				<stop  offset="0" style="stop-color:#30BAE7"/>
				<stop  offset="0.4957" style="stop-color:#0543E9"/>
				<stop  offset="1" style="stop-color:#051657"/>
			</linearGradient>
			<rect x="52.5" y="38.98" class="st0" width="755.12" height="145.62"/>
		</g>
		<g>
			<defs>
				<path id="SVGID_4_" d="M321.27,50.95c-0.12,0-0.24,0.01-0.36,0.02c-0.06-0.01-0.12-0.02-0.19-0.02h-63.25
					c-0.25,0-0.49,0.05-0.72,0.13C215.15,57.09,208.63,90,207.65,98c-0.1,0.26-0.16,0.55-0.16,0.85v73.35
					c0,1.28,1.04,2.33,2.33,2.33H227c1.28,0,2.33-1.04,2.33-2.33c0,0,0-50.64,0-69.35c0-13.11,19.33-30.06,34.7-30.06
					c12.05,0,42.7,0,42.7,0v29.56h-37.11c-1.28,0-2.33,1.04-2.33,2.33v17.19c0,1.28,1.04,2.33,2.33,2.33h37.11v48
					c0,1.28,1.04,2.33,2.33,2.33h17.19c1.28,0,2.33-1.04,2.33-2.33V58.57c0,0,0,0,0-0.01c0,0,0-0.01,0-0.01
					C328.57,54.35,325.3,50.95,321.27,50.95z"/>
			</defs>
			<clipPath id="SVGID_5_">
				<use xlink:href="#SVGID_4_"  style="overflow:visible;"/>
			</clipPath>
			<linearGradient id="SVGID_6_" gradientUnits="userSpaceOnUse" x1="52.4981" y1="111.7921" x2="807.6217" y2="111.7921">
				<stop  offset="0" style="stop-color:#30BAE7"/>
				<stop  offset="0.4957" style="stop-color:#0543E9"/>
				<stop  offset="1" style="stop-color:#051657"/>
			</linearGradient>
			<rect x="52.5" y="38.98" class="st1" width="755.12" height="145.62"/>
		</g>
		<g>
			<defs>
				<path id="SVGID_7_" d="M662.76,50.95h-20.53c-1.03,0-1.87,0.84-1.87,1.87v119.83c0,1.03,0.84,1.87,1.87,1.87h20.53
					c1.03,0,1.87-0.84,1.87-1.87V52.82C664.63,51.79,663.8,50.95,662.76,50.95z"/>
			</defs>
			<clipPath id="SVGID_8_">
				<use xlink:href="#SVGID_7_"  style="overflow:visible;"/>
			</clipPath>
			<linearGradient id="SVGID_9_" gradientUnits="userSpaceOnUse" x1="52.4981" y1="111.7921" x2="807.6217" y2="111.7921">
				<stop  offset="0" style="stop-color:#30BAE7"/>
				<stop  offset="0.4957" style="stop-color:#0543E9"/>
				<stop  offset="1" style="stop-color:#051657"/>
			</linearGradient>
			<rect x="52.5" y="38.98" class="st2" width="755.12" height="145.62"/>
		</g>
		<g>
			<defs>
				<path id="SVGID_10_" d="M620.14,72.44V51.91c0-1.03-0.84-1.87-1.87-1.87H496.01c-1.03,0-1.87,0.84-1.87,1.87v20.53
					c0,1.03,0.84,1.87,1.87,1.87h49.3v98.34c0,1.03,0.84,1.87,1.87,1.87h20.53c1.03,0,1.87-0.84,1.87-1.87V74.31h48.69
					C619.3,74.31,620.14,73.47,620.14,72.44z"/>
			</defs>
			<clipPath id="SVGID_11_">
				<use xlink:href="#SVGID_10_"  style="overflow:visible;"/>
			</clipPath>
			<linearGradient id="SVGID_12_" gradientUnits="userSpaceOnUse" x1="52.4981" y1="111.7921" x2="807.6217" y2="111.7921">
				<stop  offset="0" style="stop-color:#30BAE7"/>
				<stop  offset="0.4957" style="stop-color:#0543E9"/>
				<stop  offset="1" style="stop-color:#051657"/>
			</linearGradient>
			<rect x="52.5" y="38.98" class="st3" width="755.12" height="145.62"/>
		</g>
		<g>
			<defs>
				<path id="SVGID_13_" d="M471.44,50.95h-20.53c-1.03,0-1.87,0.84-1.87,1.87v80.31l-78.82-78.82c-2.08-2.53-5.24-4.14-8.78-4.14
					c-6.06,0-11,4.75-11.34,10.73c-0.02,0.1-0.03,0.21-0.03,0.32v111.44c0,1.03,0.84,1.87,1.87,1.87h20.53
					c1.03,0,1.87-0.84,1.87-1.87v-79.9l78.93,78.93c0.02,0.02,0.05,0.04,0.08,0.06c2.1,2.26,5.1,3.68,8.43,3.68
					c6.23,0,11.29-4.95,11.51-11.12c0.01-0.07,0.02-0.13,0.02-0.2V52.82C473.31,51.79,472.47,50.95,471.44,50.95z"/>
			</defs>
			<clipPath id="SVGID_14_">
				<use xlink:href="#SVGID_13_"  style="overflow:visible;"/>
			</clipPath>
			<linearGradient id="SVGID_15_" gradientUnits="userSpaceOnUse" x1="52.4981" y1="111.7921" x2="807.6217" y2="111.7921">
				<stop  offset="0" style="stop-color:#30BAE7"/>
				<stop  offset="0.4957" style="stop-color:#0543E9"/>
				<stop  offset="1" style="stop-color:#051657"/>
			</linearGradient>
			<rect x="52.5" y="38.98" class="st4" width="755.12" height="145.62"/>
		</g>
		<g>
			<defs>
				<circle id="SVGID_16_" cx="608.73" cy="164.36" r="12.12"/>
			</defs>
			<clipPath id="SVGID_17_">
				<use xlink:href="#SVGID_16_"  style="overflow:visible;"/>
			</clipPath>
			<linearGradient id="SVGID_18_" gradientUnits="userSpaceOnUse" x1="52.4981" y1="111.7921" x2="807.6217" y2="111.7921">
				<stop  offset="0" style="stop-color:#30BAE7"/>
				<stop  offset="0.4957" style="stop-color:#0543E9"/>
				<stop  offset="1" style="stop-color:#051657"/>
			</linearGradient>
			<rect x="52.5" y="38.98" class="st5" width="755.12" height="145.62"/>
		</g>
		<g>
			<defs>
				<path id="SVGID_19_" d="M184.35,94.91c-1.97-24.88-22.79-44.46-48.18-44.46v0.05c-0.15-0.03-0.31-0.05-0.47-0.05H56.61
					c-1.26,0-2.29,1.03-2.29,2.29v18.27c0,1.26,1.03,2.29,2.29,2.29h79.08c0.16,0,0.32-0.02,0.47-0.05v0.08
					c0.37-0.02,0.74-0.03,1.11-0.03c13.46,0,24.37,10.91,24.37,24.37c0,0.14,0,0.27,0,0.41c0,0.1,0,0.21,0,0.31v33.81
					c-0.73,10.59-8.96,19.23-19.42,20.37h-35.68H95.14c-1.09,0-1.99,0.89-1.99,1.99v18.88c0,1.09,0.89,1.99,1.99,1.99h48.67
					c0.07,0,0.13-0.01,0.2-0.02c21.26-0.41,38.95-17.03,40.38-38c0.07-0.3,0.11-0.61,0.11-0.93V96.61c0-0.32-0.04-0.64-0.11-0.94
					C184.37,95.41,184.37,95.16,184.35,94.91z"/>
			</defs>
			<clipPath id="SVGID_20_">
				<use xlink:href="#SVGID_19_"  style="overflow:visible;"/>
			</clipPath>
			<rect x="48.18" y="-7.94" class="st6" width="151.28" height="131.87"/>
			<linearGradient id="SVGID_21_" gradientUnits="userSpaceOnUse" x1="52.4981" y1="111.7921" x2="807.6217" y2="111.7921">
				<stop  offset="0" style="stop-color:#30BAE7"/>
				<stop  offset="0.4957" style="stop-color:#0543E9"/>
				<stop  offset="1" style="stop-color:#051657"/>
			</linearGradient>
			<rect x="52.5" y="38.98" class="st7" width="755.12" height="145.62"/>
		</g>
	</g>
</g>
</svg>
